<svg width="136" height="45" viewBox="0 0 136 45" fill="none" xmlns="http://www.w3.org/2000/svg">
<g clip-path="url(#clip0_49_512)">
<path d="M1.63235 36.3198C0.571324 35.0956 0 33.4632 0 31.2595V16.4867C0 14.3647 0.571324 12.6507 1.63235 11.4264C2.69338 10.2022 4.32574 9.63086 6.36618 9.63086C8.40662 9.63086 10.039 10.2022 11.1 11.4264C12.161 12.6507 12.7324 14.2831 12.7324 16.4867V19.425H8.65147V16.2419C8.65147 14.5279 7.91691 13.7117 6.44779 13.7117C4.97868 13.7117 4.24412 14.5279 4.24412 16.2419V31.6676C4.24412 33.3816 4.97868 34.1978 6.44779 34.1978C7.91691 34.1978 8.65147 33.3816 8.65147 31.6676V27.4235H12.7324V31.3412C12.7324 33.4632 12.161 35.1772 11.1 36.4014C10.039 37.6257 8.40662 38.197 6.36618 38.197C4.32574 38.1154 2.69338 37.5441 1.63235 36.3198Z" fill="#414142"/>
<path d="M16.8949 36.3198C15.7522 35.0955 15.1809 33.3815 15.1809 31.1778V16.6499C15.1809 14.4462 15.7522 12.7323 16.8949 11.508C18.0375 10.2837 19.6699 9.7124 21.7919 9.7124C23.914 9.7124 25.5463 10.2837 26.689 11.508C27.8316 12.7323 28.403 14.4462 28.403 16.6499V31.1778C28.403 33.3815 27.8316 35.0955 26.689 36.3198C25.5463 37.544 23.914 38.1153 21.7919 38.1153C19.6699 38.1153 18.0375 37.544 16.8949 36.3198ZM23.9956 31.4227V16.3234C23.9956 14.5278 23.2611 13.6301 21.7103 13.6301C20.2412 13.6301 19.425 14.5278 19.425 16.3234V31.4227C19.425 33.2183 20.1596 34.1161 21.7103 34.1161C23.2611 34.1977 23.9956 33.2183 23.9956 31.4227Z" fill="#414142"/>
<path d="M31.3412 10.0391H37.9522C40.0743 10.0391 41.7066 10.6104 42.8493 11.753C43.9103 12.8957 44.4816 14.6097 44.4816 16.8133V30.7699C44.4816 32.9736 43.9103 34.6876 42.8493 35.8302C41.7882 36.9729 40.1559 37.5442 37.9522 37.5442H31.3412V10.0391ZM37.8706 33.7898C38.6052 33.7898 39.0949 33.5449 39.503 33.1369C39.911 32.7288 40.0743 31.9942 40.0743 31.0964V16.7317C40.0743 15.7523 39.911 15.0994 39.503 14.6913C39.0949 14.2832 38.6052 14.0383 37.8706 14.0383H35.6669V33.7898H37.8706Z" fill="#414142"/>
<path d="M47.3383 10.0391H59.1728V13.9567H51.664V21.3023H57.6221V25.3016H51.664V33.7898H59.1728V37.7074H47.3383V10.0391Z" fill="#414142"/>
<path d="M66.6816 10.0391H78.1897V13.9567H71.0074V21.6288H76.639V25.5464H71.0074V37.6258H66.6816V10.0391Z" fill="#414142"/>
<path d="M92.9625 10.0391H99.4103C101.614 10.0391 103.246 10.5288 104.307 11.5898C105.368 12.6508 105.858 14.2016 105.858 16.4052V18.1192C105.858 20.9758 104.879 22.7714 103.001 23.5876V23.6692C104.063 23.9957 104.797 24.6486 105.205 25.628C105.613 26.6074 105.858 27.9133 105.858 29.5457V34.4427C105.858 35.2589 105.858 35.9119 105.94 36.3199C106.021 36.8097 106.103 37.2994 106.348 37.7891H101.94C101.777 37.381 101.696 36.8913 101.614 36.5648C101.532 36.1567 101.532 35.4222 101.532 34.4427V29.3824C101.532 28.1582 101.288 27.2604 100.879 26.7707C100.471 26.281 99.7368 26.0361 98.7574 26.0361H97.2883V37.8707H92.9625V10.0391ZM98.839 21.8736C99.7368 21.8736 100.39 21.6288 100.798 21.2207C101.206 20.8126 101.451 19.9964 101.451 18.9354V16.8133C101.451 15.8339 101.288 15.0994 100.879 14.6097C100.553 14.2016 99.9816 13.9567 99.1655 13.9567H97.2066V21.8736H98.839Z" fill="#414142"/>
<path d="M109.694 36.3198C108.633 35.0956 108.062 33.3816 108.062 31.1779V29.6272H112.143V31.5044C112.143 33.3 112.877 34.1978 114.428 34.1978C115.163 34.1978 115.734 33.9529 116.142 33.5448C116.55 33.1367 116.713 32.4022 116.713 31.4228C116.713 30.2801 116.468 29.2191 115.897 28.3213C115.407 27.4235 114.428 26.3625 112.959 25.1382C111.163 23.5875 109.939 22.1184 109.204 20.8125C108.47 19.5066 108.143 18.1191 108.143 16.4867C108.143 14.2831 108.715 12.5691 109.776 11.4264C110.918 10.2022 112.469 9.63086 114.591 9.63086C116.632 9.63086 118.264 10.2022 119.325 11.4264C120.386 12.6507 120.957 14.3647 120.957 16.5684V17.711H116.876V16.3235C116.876 15.3441 116.713 14.6912 116.305 14.2831C115.897 13.875 115.407 13.6301 114.673 13.6301C113.204 13.6301 112.469 14.5279 112.469 16.2419C112.469 17.2213 112.714 18.2007 113.285 19.0169C113.857 19.9147 114.836 20.9757 116.224 22.2C118.019 23.7507 119.325 25.2198 119.978 26.5257C120.631 27.8316 121.039 29.3007 121.039 31.0963C121.039 33.3816 120.468 35.0956 119.325 36.3198C118.182 37.5441 116.55 38.1154 114.428 38.1154C112.388 38.1154 110.837 37.5441 109.694 36.3198Z" fill="#414142"/>
<path d="M126.997 14.0383H122.427V10.1206H135.893V14.0383H131.323V37.789H126.997V14.0383Z" fill="#414142"/>
<path d="M87.5757 9.95752H83.4132V37.7075H87.5757V9.95752Z" fill="#F69320"/>
<path d="M80.7198 6.52941L85.5353 0L90.3507 6.52941H80.7198Z" fill="#F69320"/>
<path d="M92.2279 44.4H78.8426C78.4345 44.4 78.108 44.0735 78.108 43.6654V41.1353H92.9624V43.6654C92.9624 44.0735 92.636 44.4 92.2279 44.4Z" fill="#F69320"/>
</g>
<defs>
<clipPath id="clip0_49_512">
<rect width="135.893" height="44.4" fill="white"/>
</clipPath>
</defs>
</svg>
