<?xml version="1.0" encoding="UTF-8"?>
<!DOCTYPE svg PUBLIC "-//W3C//DTD SVG 1.1//EN" "http://www.w3.org/Graphics/SVG/1.1/DTD/svg11.dtd">
<svg xmlns="http://www.w3.org/2000/svg" version="1.1" width="478px" height="144px" style="shape-rendering:geometricPrecision; text-rendering:geometricPrecision; image-rendering:optimizeQuality; fill-rule:evenodd; clip-rule:evenodd" xmlns:xlink="http://www.w3.org/1999/xlink">
<g><path style="opacity:1" fill="#fcfcfd" d="M -0.5,-0.5 C 158.833,-0.5 318.167,-0.5 477.5,-0.5C 477.5,47.5 477.5,95.5 477.5,143.5C 318.167,143.5 158.833,143.5 -0.5,143.5C -0.5,95.5 -0.5,47.5 -0.5,-0.5 Z"/></g>
<g><path style="opacity:1" fill="#2a3a69" d="M 30.5,5.5 C 45.2697,3.46457 53.7697,9.7979 56,24.5C 57.5127,33.4469 57.846,42.4469 57,51.5C 54.9075,64.6215 52.5741,77.6215 50,90.5C 65.8305,64.7175 84.6638,41.2175 106.5,20C 114.554,11.9732 124.22,7.13986 135.5,5.5C 138.321,5.16757 140.654,6.0009 142.5,8C 132.647,8.92826 123.98,12.5949 116.5,19C 85.1785,47.4717 58.5118,79.6384 36.5,115.5C 35.4173,114.635 35.2506,113.635 36,112.5C 37.8333,109.5 39.6667,106.5 41.5,103.5C 41,103.167 40.5,102.833 40,102.5C 36.6102,104.131 33.1102,104.964 29.5,105C 37.663,80.5272 42.3296,55.3605 43.5,29.5C 44.0268,21.9095 41.6934,15.4095 36.5,10C 32.075,7.81698 28.075,8.48365 24.5,12C 12.0682,25.7098 5.90155,41.8764 6,60.5C -0.176359,35.4595 7.99031,17.1261 30.5,5.5 Z"/></g>
<g><path style="opacity:1" fill="#293a69" d="M 388.5,83.5 C 390.757,82.4382 391.923,80.7715 392,78.5C 390.624,79.7051 389.458,81.0384 388.5,82.5C 386.852,83.8098 385.186,85.1431 383.5,86.5C 382.479,85.9984 382.312,85.3317 383,84.5C 390.234,76.5959 398.067,69.4292 406.5,63C 408.902,62.1859 411.235,62.3526 413.5,63.5C 406.714,71.7388 402.047,81.0721 399.5,91.5C 399.239,93.985 400.239,95.6517 402.5,96.5C 409.913,93.9603 416.58,90.127 422.5,85C 428.469,80.0328 434.135,74.6995 439.5,69C 435.363,69.2033 433.863,67.37 435,63.5C 438.705,60.5646 442.871,58.5646 447.5,57.5C 451.585,50.5817 456.252,44.0817 461.5,38C 466.266,35.4301 471.266,34.9301 476.5,36.5C 470.019,44.1487 463.352,51.6487 456.5,59C 461.205,59.6769 465.372,61.5103 469,64.5C 469.667,65.8333 469.667,67.1667 469,68.5C 467.786,66.9512 466.286,65.7845 464.5,65C 460.167,64.3333 455.833,64.3333 451.5,65C 444.08,73.5048 438.747,83.1715 435.5,94C 435.521,96.9044 436.855,98.7378 439.5,99.5C 444.553,98.1401 449.219,95.9734 453.5,93C 459.5,87.6667 465.5,82.3333 471.5,77C 472.332,76.3123 472.998,76.479 473.5,77.5C 464.358,88.4842 453.358,96.9842 440.5,103C 437.167,103.667 433.833,103.667 430.5,103C 428.951,101.786 427.785,100.286 427,98.5C 426.448,93.4233 426.448,88.4233 427,83.5C 418.863,90.9746 409.696,96.808 399.5,101C 391.653,103.42 386.986,100.753 385.5,93C 385.806,89.5846 386.806,86.4179 388.5,83.5 Z"/></g>
<g><path style="opacity:1" fill="#293968" d="M 106.5,44.5 C 113.565,43.9605 115.398,46.9605 112,53.5C 109.683,56.0965 106.85,56.9299 103.5,56C 102.196,55.196 101.529,54.0293 101.5,52.5C 102.366,49.3075 104.032,46.6408 106.5,44.5 Z"/></g>
<g><path style="opacity:1" fill="#2b3b6a" d="M 383.5,44.5 C 390.565,43.9605 392.398,46.9605 389,53.5C 386.291,56.368 383.124,57.0347 379.5,55.5C 378.978,54.3926 378.645,53.2259 378.5,52C 379.546,49.1142 381.213,46.6142 383.5,44.5 Z"/></g>
<g><path style="opacity:1" fill="#2a3b69" d="M 419.5,44.5 C 425.674,43.1729 427.841,45.5062 426,51.5C 424.5,53 423,54.5 421.5,56C 415.333,57.8333 413.167,55.6667 415,49.5C 416.366,47.6383 417.866,45.9717 419.5,44.5 Z"/></g>
<g><path style="opacity:1" fill="#2a3a69" d="M 76.5,82.5 C 78.5995,81.4829 79.5995,80.1495 79.5,78.5C 77.812,79.5213 76.4787,80.8546 75.5,82.5C 74.1851,83.4756 72.8518,84.4756 71.5,85.5C 70.479,84.9984 70.3123,84.3317 71,83.5C 76.8333,79 82,73.8333 86.5,68C 88.9007,65.9376 91.5674,64.2709 94.5,63C 96.5787,62.1923 98.5787,62.359 100.5,63.5C 95.3023,70.5588 91.1357,78.2255 88,86.5C 87.3333,89.5 87.3333,92.5 88,95.5C 90.1469,96.4757 92.3136,96.309 94.5,95C 99.4352,92.3943 104.102,89.3943 108.5,86C 118.202,76.6298 128.202,67.6298 138.5,59C 143.243,55.2946 148.576,53.9613 154.5,55C 155.308,55.3076 155.975,55.8076 156.5,56.5C 154.171,57.9979 152.337,59.9979 151,62.5C 147.545,73.7273 143.712,84.394 139.5,94.5C 149.836,89.0763 159.003,82.0763 167,73.5C 174.603,60.2356 182.603,47.2356 191,34.5C 198.667,23.162 208.5,14.3287 220.5,8C 233.217,4.39537 238.384,8.89537 236,21.5C 232.04,30.7949 225.874,38.2949 217.5,44C 210.654,48.9258 203.321,53.0924 195.5,56.5C 194.167,55.8333 194.167,55.1667 195.5,54.5C 208.86,48.6383 220.026,39.9716 229,28.5C 234.965,14.1116 231.465,11.6116 218.5,21C 201.84,36.294 188.34,53.794 178,73.5C 183.477,64.6808 191.31,60.5141 201.5,61C 205.87,65.0878 206.704,69.9211 204,75.5C 200.667,81.5 197.333,87.5 194,93.5C 193.51,94.7932 193.343,96.1266 193.5,97.5C 196.016,97.2447 198.35,96.4114 200.5,95C 212.427,85.7438 223.76,75.7438 234.5,65C 237.601,62.6492 240.934,62.1492 244.5,63.5C 238.164,71.1706 233.664,79.8373 231,89.5C 229.897,95.4507 232.064,96.9507 237.5,94C 245.5,85.3333 253.5,76.6667 261.5,68C 264.457,65.8794 267.124,66.0461 269.5,68.5C 262.613,76.1595 259.279,85.1595 259.5,95.5C 262.425,95.5402 265.091,94.7068 267.5,93C 271.036,89.7988 274.203,86.2988 277,82.5C 276.823,75.5359 278.656,69.2026 282.5,63.5C 285.927,60.4533 289.927,59.12 294.5,59.5C 294.509,61.3084 294.009,62.9751 293,64.5C 286.548,70.8705 283.382,78.3705 283.5,87C 284.5,87.6667 285.5,87.6667 286.5,87C 292.384,83.4492 296.884,78.6159 300,72.5C 309.156,62.8344 320.323,58.6677 333.5,60C 337.484,61.1486 340.484,63.4819 342.5,67C 345.775,67.4608 348.109,69.1275 349.5,72C 344.622,78.5521 340.122,85.3854 336,92.5C 335.014,94.9248 335.681,96.5915 338,97.5C 350.719,91.9633 361.719,83.9633 371,73.5C 372.696,71.4404 373.863,69.1071 374.5,66.5C 374.278,64.9446 373.611,63.6113 372.5,62.5C 375.271,61.6903 377.438,62.6903 379,65.5C 378.628,77.6108 375.295,88.9442 369,99.5C 360.597,118.239 346.763,131.072 327.5,138C 316.348,141.615 305.348,141.281 294.5,137C 287.16,132.983 283.993,126.816 285,118.5C 291.147,136.325 302.98,141.825 320.5,135C 343.392,120.315 360.059,100.815 370.5,76.5C 360.979,87.1889 349.645,95.3556 336.5,101C 333.007,102.004 329.841,101.504 327,99.5C 325.337,95.2165 325.004,90.8832 326,86.5C 320.156,93.3518 312.99,98.1851 304.5,101C 298.617,102.922 294.451,101.089 292,95.5C 291.718,91.9984 291.551,88.6651 291.5,85.5C 288.159,89.1873 284.159,90.5206 279.5,89.5C 278.416,88.3349 277.583,87.0016 277,85.5C 271.761,91.7361 265.594,96.9028 258.5,101C 249.119,102.955 244.619,99.1214 245,89.5C 241.419,93.7523 237.252,97.2523 232.5,100C 227.86,102.15 223.36,101.984 219,99.5C 217.596,97.3611 216.763,95.0278 216.5,92.5C 217.945,87.2877 220.112,82.621 223,78.5C 214.65,87.524 205.15,95.024 194.5,101C 181.043,101.832 177.876,96.3317 185,84.5C 189.333,78.8333 193.667,73.1667 198,67.5C 198.86,64.5218 197.693,63.1884 194.5,63.5C 188.142,65.3386 182.975,69.0052 179,74.5C 172.813,81.7021 167.813,89.7021 164,98.5C 162.736,100.607 160.903,101.607 158.5,101.5C 161.275,92.6776 164.108,84.011 167,75.5C 156.575,87.9525 143.741,96.7858 128.5,102C 123.5,102.667 118.5,102.667 113.5,102C 108.6,100.098 105.433,96.5982 104,91.5C 96.6145,98.7791 87.7811,101.946 77.5,101C 74.1634,99.1583 72.83,96.325 73.5,92.5C 73.3552,88.7982 74.3552,85.4649 76.5,82.5 Z"/></g>
<g><path style="opacity:1" fill="#f8f9fa" d="M 330.5,63.5 C 339.128,62.2121 341.294,65.2121 337,72.5C 329.803,80.0314 322.303,87.1981 314.5,94C 311.264,96.6351 307.597,97.6351 303.5,97C 302.446,95.6124 302.28,94.1124 303,92.5C 308.657,79.347 317.824,69.6803 330.5,63.5 Z"/></g>
<g><path style="opacity:1" fill="#f7f8f9" d="M 147.5,56.5 C 149.527,56.3379 151.527,56.5045 153.5,57C 149.542,59.234 146.042,62.0673 143,65.5C 137.748,73.6676 132.748,82.0009 128,90.5C 123.327,97.2785 117.161,99.4451 109.5,97C 107.102,95.3644 105.935,93.1977 106,90.5C 114.5,82.6667 123,74.8333 131.5,67C 136.727,63.2276 142.061,59.7276 147.5,56.5 Z"/></g>
<g><path style="opacity:1" fill="#9ca3b9" d="M 76.5,82.5 C 76.1667,82.5 75.8333,82.5 75.5,82.5C 76.4787,80.8546 77.812,79.5213 79.5,78.5C 79.5995,80.1495 78.5995,81.4829 76.5,82.5 Z"/></g>
<g><path style="opacity:1" fill="#9ba2b9" d="M 388.5,83.5 C 388.5,83.1667 388.5,82.8333 388.5,82.5C 389.458,81.0384 390.624,79.7051 392,78.5C 391.923,80.7715 390.757,82.4382 388.5,83.5 Z"/></g>
</svg>
